<?xml version="1.0" encoding="UTF-8"?>
<svg id="Layer_1" data-name="Layer 1" xmlns="http://www.w3.org/2000/svg" viewBox="0 0 425.57 96.37">
  <defs>
    <style>
      .cls-1 {
        fill: #0a1d56;
      }

      .cls-2 {
        fill: #011138;
      }

      .cls-3 {
        fill: #00d392;
      }
    </style>
  </defs>
  <g>
    <path class="cls-2" d="M80.79,52.76c-.14-.59-.34-1.17-.6-1.72,.22,.47,.4,.96,.54,1.48l.06,.24Z"/>
    <path class="cls-2" d="M64.95,50.54l-11.33,17.07,4.65,17.96c.66,2.57,.09,5.16-1.35,7.16,.12-.15,.25-.3,.36-.47l11.57-17.42-4.7-18.04c-.57-2.2-.22-4.42,.79-6.26Z"/>
    <path class="cls-2" d="M55.62,88.38s-.07,.09-.1,.13c.04-.04,.07-.09,.1-.13Z"/>
    <path class="cls-1" d="M80.76,96.04c-.08,0-.16,0-.24,0,.08,0,.16,0,.24,0Z"/>
    <path class="cls-1" d="M81.2,96.04c.64-.02,1.28-.1,1.92-.26,2.64-.68,4.67-2.53,5.69-4.85l-.72,1.14c-1.56,2.47-4.18,3.87-6.89,3.98Z"/>
    <path class="cls-1" d="M77.38,47.71c1.26,.88,2.2,2.04,2.81,3.33-1.71-3.67-5.83-5.72-9.89-4.67-2.38,.61-4.25,2.17-5.35,4.17l.51-.73c2.71-3.87,8.05-4.81,11.92-2.1Z"/>
    <path class="cls-1" d="M83.34,62.84l-2.56-10.08-.06-.24c-.13-.52-.32-1.01-.54-1.48-.61-1.29-1.56-2.45-2.81-3.33-3.87-2.71-9.21-1.77-11.92,2.1l-.51,.73c-1.02,1.85-1.36,4.06-.79,6.26l4.7,18.04,2.58,10.16c-.17-1.82,.23-3.7,1.28-5.36l10.64-16.8Z"/>
    <path class="cls-1" d="M55.71,88.27s-.06,.08-.09,.11c.03-.04,.06-.07,.09-.11Z"/>
    <path class="cls-1" d="M19,13.57h-6.94c-4.57,0-8.27,3.7-8.27,8.27h0c0,4.57,3.7,8.27,8.27,8.27h11.22l-4.28-16.54Z"/>
    <path class="cls-1" d="M59.86,14.2c-.98-.41-2.05-.64-3.18-.64h-16.7l-1.85-7.15C36.94,1.84,32.27-.91,27.7,.27c-4.58,1.18-7.33,5.85-6.14,10.43l.74,2.86,4.13,15.97,.15,.57,15.12,59.75c1.18,4.58,5.85,7.33,10.43,6.14,1.9-.49,3.48-1.59,4.6-3.03,.03-.04,.07-.08,.1-.13,.03-.04,.06-.07,.09-.11,1.44-1.99,2.01-4.59,1.35-7.16l-5.55-22.78-8.45-32.68h12.42c4.57,0,8.27-3.7,8.27-8.27h0c0-3.44-2.1-6.39-5.09-7.63Z"/>
    <path class="cls-3" d="M81.2,96.04c-.15,0-.3,0-.44,0,.15,0,.29,0,.44,0Z"/>
    <path class="cls-3" d="M72.7,89.63l-.35-1.35c.24,2.55,1.61,4.97,3.94,6.44,1.32,.83,2.78,1.25,4.23,1.31-3.63-.2-6.87-2.7-7.82-6.4Z"/>
    <path class="cls-3" d="M111.46,50.47h0c-.1-.06-.2-.1-.3-.15,0,0,0,0,0,0-.93-.4-2-.18-2.69,.54-.03,.05-.07,.09-.1,.13l-.66,1.08s0-.01,0-.02l-1.48,2.44-3.82,6.23c-.03,.07-.05,.14-.08,.21l-1.63,2.69c-1.02,1.69-3.23,2.23-4.92,1.21h0c-1.69-1.03-2.23-3.23-1.21-4.92l1.42-2.34,1.48-2.36c.1-.15,.17-.31,.24-.48,.42-1.13,0-2.45-1.05-3.11h0c-1.06-.66-2.41-.47-3.24,.38-.13,.13-.24,.27-.35,.43l-6.26,9.95c-.04,.06-.06,.13-.1,.19l-2.45,3.86-10.64,16.8c-1.05,1.66-1.45,3.55-1.28,5.36l.35,1.35c.96,3.7,4.2,6.21,7.82,6.4,.08,0,.16,0,.24,0,.15,0,.29,0,.44,0,2.72-.11,5.33-1.51,6.89-3.98l.72-1.14,18.96-29.96c.24-.38,.44-.76,.61-1.16l2.54-4.16,1.04-1.77s0,0,0,0l.51-.86c.38-1.05-.02-2.26-1.01-2.87Z"/>
    <path class="cls-3" d="M97.98,60.4c.97,.58,2.24,.27,2.82-.71l2.18-3.65c.58-.97,.27-2.24-.71-2.82-.97-.58-2.24-.27-2.82,.71l-2.18,3.65c-.58,.97-.27,2.24,.71,2.82Z"/>
    <rect class="cls-3" x="100" y="42.67" width="14.75" height="4.11" rx="2.06" ry="2.06" transform="translate(13.84 113.86) rotate(-59.09)"/>
  </g>
  <g>
    <path class="cls-1" d="M151.99,28.86h-10.07V61.97c0,1.91-.43,3.32-1.27,4.24-.85,.92-1.95,1.38-3.29,1.38s-2.48-.47-3.34-1.4c-.86-.93-1.29-2.34-1.29-4.23V28.86h-10.07c-1.58,0-2.75-.35-3.51-1.04-.77-.69-1.15-1.61-1.15-2.75s.4-2.11,1.2-2.8c.8-.68,1.95-1.03,3.47-1.03h29.35c1.6,0,2.78,.35,3.56,1.06,.78,.71,1.17,1.63,1.17,2.77s-.39,2.06-1.18,2.75c-.79,.69-1.97,1.04-3.54,1.04Z"/>
    <path class="cls-1" d="M181.27,52.43h-16.6c.02,1.93,.41,3.63,1.17,5.1,.76,1.47,1.76,2.58,3.02,3.33,1.25,.75,2.64,1.12,4.15,1.12,1.02,0,1.94-.12,2.78-.36s1.65-.61,2.44-1.12,1.51-1.05,2.18-1.63c.66-.58,1.52-1.37,2.58-2.36,.44-.37,1.06-.56,1.87-.56,.87,0,1.57,.24,2.11,.71,.54,.48,.81,1.15,.81,2.02,0,.77-.3,1.66-.9,2.69-.6,1.03-1.51,2.01-2.72,2.95-1.21,.94-2.74,1.73-4.57,2.35-1.83,.62-3.94,.93-6.33,.93-5.45,0-9.69-1.55-12.71-4.66-3.03-3.11-4.54-7.33-4.54-12.65,0-2.51,.37-4.83,1.12-6.98,.75-2.14,1.83-3.98,3.26-5.52,1.43-1.53,3.19-2.71,5.29-3.53,2.09-.82,4.41-1.23,6.96-1.23,3.32,0,6.16,.7,8.53,2.1,2.37,1.4,4.15,3.21,5.33,5.42s1.77,4.48,1.77,6.78c0,2.13-.61,3.52-1.83,4.15-1.22,.63-2.94,.95-5.16,.95Zm-16.6-4.82h15.39c-.21-2.9-.99-5.07-2.35-6.51-1.36-1.44-3.15-2.16-5.36-2.16s-3.85,.73-5.21,2.19-2.18,3.62-2.47,6.48Z"/>
    <path class="cls-1" d="M225.85,57.09c0,1.06-.32,2.19-.95,3.39-.63,1.2-1.6,2.35-2.89,3.43-1.29,1.09-2.93,1.96-4.9,2.63-1.97,.66-4.19,1-6.65,1-5.24,0-9.34-1.53-12.28-4.58-2.94-3.06-4.42-7.16-4.42-12.3,0-3.48,.67-6.56,2.02-9.23,1.35-2.67,3.29-4.74,5.84-6.2,2.55-1.46,5.6-2.19,9.14-2.19,2.2,0,4.21,.32,6.05,.96s3.39,1.47,4.66,2.49c1.27,1.02,2.25,2.1,2.92,3.25,.67,1.15,1.01,2.22,1.01,3.22s-.38,1.88-1.13,2.58c-.76,.7-1.67,1.06-2.75,1.06-.7,0-1.29-.18-1.76-.54s-.99-.95-1.57-1.76c-1.04-1.57-2.12-2.76-3.25-3.54-1.13-.79-2.56-1.18-4.31-1.18-2.51,0-4.53,.98-6.06,2.94-1.54,1.96-2.3,4.64-2.3,8.04,0,1.6,.2,3.06,.59,4.4,.39,1.34,.96,2.48,1.71,3.42,.75,.94,1.65,1.66,2.7,2.15,1.06,.49,2.22,.73,3.48,.73,1.7,0,3.16-.39,4.37-1.18,1.21-.79,2.29-1.99,3.22-3.61,.52-.95,1.08-1.7,1.68-2.24,.6-.54,1.34-.81,2.21-.81,1.04,0,1.9,.39,2.58,1.18,.68,.79,1.03,1.63,1.03,2.52Z"/>
    <path class="cls-1" d="M239.97,25.63v12.59c1.08-1.24,2.13-2.23,3.16-2.95,1.03-.72,2.16-1.27,3.4-1.63,1.24-.36,2.58-.54,4.01-.54,2.16,0,4.07,.46,5.74,1.37,1.67,.91,2.98,2.24,3.93,3.98,.6,1.02,1.01,2.15,1.21,3.4s.31,2.7,.31,4.34v16.26c0,1.7-.39,2.98-1.17,3.86-.78,.87-1.81,1.31-3.09,1.31-2.8,0-4.2-1.72-4.2-5.16v-14.33c0-2.71-.4-4.8-1.21-6.26s-2.34-2.19-4.6-2.19c-1.51,0-2.88,.43-4.09,1.29-1.21,.86-2.12,2.04-2.72,3.53-.46,1.26-.68,3.51-.68,6.75v11.22c0,1.68-.38,2.96-1.13,3.84-.76,.88-1.81,1.32-3.16,1.32-2.8,0-4.2-1.72-4.2-5.16V25.63c0-1.72,.37-3.01,1.1-3.87,.74-.86,1.77-1.29,3.09-1.29s2.4,.44,3.16,1.31c.76,.87,1.13,2.16,1.13,3.86Z"/>
    <path class="cls-1" d="M275.41,38.38l5.53,18.96,5.04-17.63c.54-1.84,.94-3.1,1.2-3.78,.26-.67,.75-1.32,1.46-1.93s1.69-.92,2.94-.92,2.25,.31,2.97,.92c.72,.61,1.22,1.27,1.51,1.99,.29,.72,.69,1.95,1.21,3.72l5.04,17.63,5.6-18.96c.37-1.37,.67-2.36,.9-2.97,.23-.61,.61-1.15,1.15-1.62,.54-.47,1.32-.7,2.33-.7s1.9,.35,2.64,1.06c.75,.71,1.12,1.53,1.12,2.49,0,.87-.32,2.19-.96,3.95l-6.93,20.33c-.6,1.72-1.07,2.96-1.4,3.73-.33,.77-.85,1.45-1.57,2.05-.71,.6-1.69,.9-2.94,.9s-2.29-.32-3.03-.96c-.74-.64-1.28-1.43-1.63-2.36s-.74-2.15-1.15-3.64l-4.85-16.54-4.69,16.54c-.62,2.3-1.29,4.04-2.02,5.21s-2,1.76-3.82,1.76c-.93,0-1.72-.18-2.38-.54-.65-.36-1.2-.88-1.63-1.55-.44-.67-.82-1.47-1.15-2.39-.33-.92-.59-1.65-.78-2.19l-6.87-20.33c-.68-1.91-1.03-3.22-1.03-3.95,0-.91,.36-1.73,1.09-2.46s1.62-1.09,2.67-1.09c1.41,0,2.36,.4,2.86,1.2,.5,.8,1.03,2.16,1.58,4.09Z"/>
    <path class="cls-1" d="M344.74,52.43h-16.6c.02,1.93,.41,3.63,1.17,5.1,.76,1.47,1.76,2.58,3.02,3.33,1.25,.75,2.64,1.12,4.15,1.12,1.02,0,1.94-.12,2.78-.36,.84-.24,1.65-.61,2.44-1.12,.79-.51,1.51-1.05,2.18-1.63,.66-.58,1.52-1.37,2.58-2.36,.44-.37,1.06-.56,1.87-.56,.87,0,1.58,.24,2.11,.71,.54,.48,.81,1.15,.81,2.02,0,.77-.3,1.66-.9,2.69-.6,1.03-1.51,2.01-2.72,2.95-1.21,.94-2.74,1.73-4.57,2.35-1.83,.62-3.94,.93-6.33,.93-5.45,0-9.69-1.55-12.71-4.66-3.03-3.11-4.54-7.33-4.54-12.65,0-2.51,.37-4.83,1.12-6.98,.75-2.14,1.83-3.98,3.26-5.52,1.43-1.53,3.19-2.71,5.29-3.53,2.09-.82,4.41-1.23,6.96-1.23,3.32,0,6.16,.7,8.53,2.1s4.15,3.21,5.33,5.42c1.18,2.22,1.77,4.48,1.77,6.78,0,2.13-.61,3.52-1.83,4.15-1.22,.63-2.94,.95-5.16,.95Zm-16.6-4.82h15.39c-.21-2.9-.99-5.07-2.35-6.51s-3.14-2.16-5.36-2.16-3.85,.73-5.21,2.19c-1.36,1.46-2.18,3.62-2.47,6.48Z"/>
    <path class="cls-1" d="M366.59,37.79v1.03c1.49-1.97,3.12-3.41,4.9-4.34,1.77-.92,3.81-1.38,6.11-1.38s4.24,.49,6,1.46c1.76,.97,3.08,2.35,3.95,4.13,.56,1.04,.92,2.16,1.09,3.36s.25,2.74,.25,4.6v15.79c0,1.7-.39,2.98-1.17,3.86-.78,.87-1.79,1.31-3.03,1.31s-2.29-.45-3.08-1.34c-.79-.89-1.18-2.17-1.18-3.82v-14.14c0-2.8-.39-4.94-1.17-6.42-.78-1.48-2.33-2.22-4.65-2.22-1.51,0-2.89,.45-4.13,1.35-1.24,.9-2.16,2.14-2.74,3.71-.41,1.26-.62,3.63-.62,7.09v10.63c0,1.72-.4,3.01-1.2,3.87-.8,.86-1.83,1.29-3.09,1.29s-2.23-.45-3.02-1.34c-.79-.89-1.18-2.17-1.18-3.82v-24.53c0-1.62,.35-2.82,1.06-3.62,.71-.8,1.67-1.2,2.89-1.2,.75,0,1.42,.18,2.02,.53,.6,.35,1.08,.88,1.45,1.59,.36,.7,.54,1.56,.54,2.58Z"/>
    <path class="cls-1" d="M424.66,56.5c0,2.34-.57,4.35-1.71,6.02-1.14,1.67-2.82,2.93-5.05,3.79-2.23,.86-4.94,1.29-8.13,1.29s-5.66-.47-7.83-1.4c-2.18-.93-3.78-2.1-4.82-3.5-1.04-1.4-1.55-2.8-1.55-4.21,0-.93,.33-1.73,1-2.39s1.5-1,2.52-1c.89,0,1.58,.22,2.05,.65s.93,1.05,1.37,1.83c.87,1.51,1.91,2.64,3.12,3.39,1.21,.75,2.87,1.12,4.96,1.12,1.7,0,3.09-.38,4.18-1.13,1.09-.76,1.63-1.62,1.63-2.6,0-1.49-.56-2.58-1.69-3.26-1.13-.68-2.99-1.34-5.58-1.96-2.92-.73-5.3-1.49-7.13-2.29s-3.3-1.85-4.4-3.16-1.65-2.91-1.65-4.82c0-1.7,.51-3.31,1.52-4.82,1.02-1.51,2.51-2.72,4.49-3.62,1.98-.9,4.37-1.35,7.17-1.35,2.2,0,4.17,.23,5.92,.68,1.75,.46,3.21,1.07,4.38,1.83,1.17,.77,2.06,1.62,2.67,2.55,.61,.93,.92,1.84,.92,2.74,0,.97-.33,1.77-.98,2.39-.65,.62-1.58,.93-2.78,.93-.87,0-1.61-.25-2.22-.75-.61-.5-1.31-1.24-2.1-2.24-.64-.83-1.4-1.49-2.27-1.99s-2.05-.75-3.54-.75-2.81,.33-3.82,.98c-1.02,.65-1.52,1.47-1.52,2.44,0,.89,.37,1.62,1.12,2.19,.75,.57,1.75,1.04,3.02,1.42,1.26,.37,3,.83,5.22,1.37,2.63,.64,4.78,1.41,6.45,2.3,1.67,.89,2.93,1.94,3.79,3.16,.86,1.21,1.29,2.6,1.29,4.15Z"/>
  </g>
  <g>
    <path d="M128.55,82.1c.51-.86,1.19-1.54,2.06-2.02,.87-.49,1.82-.73,2.86-.73,1.18,0,2.24,.29,3.16,.87,.92,.58,1.59,1.41,2.01,2.47h-2.19c-.29-.59-.69-1.02-1.2-1.31-.51-.29-1.1-.43-1.78-.43-.74,0-1.39,.17-1.97,.5-.58,.33-1.03,.81-1.35,1.42-.33,.62-.49,1.34-.49,2.16s.16,1.54,.49,2.16c.33,.62,.78,1.1,1.35,1.43,.58,.34,1.23,.5,1.97,.5,.67,0,1.26-.14,1.78-.43,.51-.29,.91-.73,1.2-1.31h2.19c-.42,1.07-1.09,1.89-2.01,2.46-.92,.58-1.98,.86-3.16,.86-1.05,0-2-.24-2.86-.73-.86-.49-1.55-1.16-2.06-2.02-.51-.86-.76-1.84-.76-2.93s.25-2.06,.76-2.93Z"/>
    <path d="M149.65,81.79v8.82h-1.82v-1.04c-.29,.36-.66,.65-1.13,.86s-.96,.31-1.48,.31c-.69,0-1.31-.14-1.86-.43-.55-.29-.98-.71-1.3-1.28-.31-.57-.47-1.25-.47-2.05v-5.18h1.81v4.91c0,.79,.2,1.4,.59,1.82,.39,.42,.93,.63,1.62,.63s1.22-.21,1.62-.63c.4-.42,.6-1.03,.6-1.82v-4.91h1.82Z"/>
    <path d="M155.83,82.03c.44-.25,.97-.38,1.58-.38v1.89h-.46c-.71,0-1.26,.18-1.62,.54-.37,.36-.55,.99-.55,1.89v4.64h-1.82v-8.82h1.82v1.28c.27-.45,.62-.8,1.06-1.05Z"/>
    <path d="M159.93,83.81c.37-.68,.87-1.21,1.5-1.59,.63-.38,1.34-.57,2.1-.57,.69,0,1.3,.14,1.82,.41,.52,.27,.93,.61,1.24,1.02v-1.28h1.84v8.82h-1.84v-1.31c-.31,.42-.73,.76-1.26,1.04-.53,.28-1.14,.42-1.82,.42-.76,0-1.45-.19-2.08-.58-.63-.39-1.13-.93-1.5-1.63-.37-.7-.55-1.49-.55-2.38s.18-1.67,.55-2.35Zm6.29,.8c-.25-.45-.58-.79-.98-1.02-.41-.23-.84-.35-1.31-.35s-.91,.11-1.31,.34c-.41,.23-.73,.57-.98,1.01-.25,.44-.38,.97-.38,1.58s.13,1.14,.38,1.6c.25,.46,.58,.81,.99,1.05s.85,.36,1.3,.36,.91-.12,1.31-.35c.4-.23,.73-.58,.98-1.03,.25-.45,.38-.98,.38-1.59s-.13-1.14-.38-1.58Z"/>
    <path d="M173.85,83.28v4.88c0,.33,.08,.57,.23,.71,.15,.14,.42,.22,.79,.22h1.12v1.52h-1.44c-.82,0-1.45-.19-1.89-.58-.44-.38-.66-1.01-.66-1.87v-4.88h-1.04v-1.49h1.04v-2.19h1.84v2.19h2.14v1.49h-2.14Z"/>
    <path d="M178.67,80.29c-.22-.22-.34-.5-.34-.83s.11-.61,.34-.83c.22-.22,.5-.34,.83-.34s.59,.11,.82,.34c.22,.22,.34,.5,.34,.83s-.11,.61-.34,.83c-.22,.22-.5,.34-.82,.34s-.61-.11-.83-.34Zm1.73,1.5v8.82h-1.82v-8.82h1.82Z"/>
    <path d="M190.01,82.08c.55,.29,.98,.71,1.29,1.28,.31,.57,.46,1.25,.46,2.05v5.2h-1.81v-4.93c0-.79-.2-1.39-.59-1.82-.39-.42-.93-.63-1.62-.63s-1.22,.21-1.62,.63c-.4,.42-.6,1.03-.6,1.82v4.93h-1.82v-8.82h1.82v1.01c.3-.36,.68-.65,1.14-.85,.46-.2,.96-.3,1.48-.3,.69,0,1.31,.14,1.86,.43Z"/>
    <path d="M200.34,82.06c.53,.27,.94,.61,1.24,1.02v-1.28h1.84v8.96c0,.81-.17,1.53-.51,2.17-.34,.63-.83,1.13-1.48,1.5-.65,.36-1.42,.54-2.31,.54-1.19,0-2.19-.28-2.98-.84-.79-.56-1.24-1.32-1.34-2.28h1.81c.14,.46,.43,.83,.89,1.11,.45,.28,.99,.42,1.62,.42,.74,0,1.33-.22,1.78-.67,.45-.45,.68-1.1,.68-1.95v-1.47c-.31,.42-.73,.77-1.26,1.05-.53,.28-1.13,.42-1.8,.42-.77,0-1.47-.19-2.1-.58-.63-.39-1.14-.93-1.5-1.63-.37-.7-.55-1.49-.55-2.38s.18-1.67,.55-2.35,.87-1.21,1.5-1.59c.63-.38,1.34-.57,2.1-.57,.68,0,1.29,.14,1.82,.41Zm.86,2.55c-.25-.45-.58-.79-.98-1.02-.41-.23-.84-.35-1.31-.35s-.91,.11-1.31,.34c-.41,.23-.73,.57-.98,1.01-.25,.44-.38,.97-.38,1.58s.13,1.14,.38,1.6c.25,.46,.58,.81,.99,1.05,.41,.24,.85,.36,1.3,.36s.91-.12,1.31-.35,.73-.58,.98-1.03c.25-.45,.38-.98,.38-1.59s-.12-1.14-.38-1.58Z"/>
    <path d="M218.96,79.49v1.49h-2.96v9.63h-1.82v-9.63h-2.98v-1.49h7.76Z"/>
    <path d="M229.71,86.88h-6.74c.05,.7,.31,1.27,.78,1.7,.47,.43,1.05,.64,1.73,.64,.98,0,1.67-.41,2.08-1.23h1.97c-.27,.81-.75,1.47-1.45,1.99s-1.57,.78-2.6,.78c-.84,0-1.6-.19-2.26-.57-.67-.38-1.19-.91-1.57-1.6-.38-.69-.57-1.48-.57-2.39s.18-1.7,.55-2.39c.37-.69,.89-1.22,1.55-1.59,.67-.37,1.43-.56,2.3-.56s1.57,.18,2.22,.54,1.16,.87,1.52,1.53c.36,.66,.54,1.41,.54,2.26,0,.33-.02,.63-.06,.9Zm-1.84-1.47c-.01-.67-.25-1.21-.72-1.62-.47-.41-1.05-.61-1.74-.61-.63,0-1.17,.2-1.62,.6-.45,.4-.71,.94-.8,1.62h4.88Z"/>
    <path d="M232.4,83.8c.37-.69,.88-1.22,1.53-1.59,.65-.37,1.4-.56,2.24-.56,1.07,0,1.95,.25,2.65,.76,.7,.51,1.17,1.23,1.42,2.17h-1.97c-.16-.44-.42-.78-.77-1.02-.35-.25-.79-.37-1.33-.37-.75,0-1.34,.26-1.78,.79s-.66,1.27-.66,2.22,.22,1.69,.66,2.22c.44,.53,1.04,.8,1.78,.8,1.06,0,1.75-.46,2.1-1.39h1.97c-.26,.9-.74,1.61-1.44,2.14-.7,.53-1.58,.79-2.62,.79-.84,0-1.59-.19-2.24-.57s-1.16-.91-1.53-1.6c-.37-.69-.55-1.48-.55-2.39s.18-1.7,.55-2.39Z"/>
    <path d="M249.32,82.08c.53,.29,.94,.71,1.25,1.28,.3,.57,.46,1.25,.46,2.05v5.2h-1.81v-4.93c0-.79-.2-1.39-.59-1.82-.39-.42-.93-.63-1.62-.63s-1.22,.21-1.62,.63c-.4,.42-.6,1.03-.6,1.82v4.93h-1.82v-11.84h1.82v4.05c.31-.37,.7-.66,1.18-.86,.47-.2,.99-.3,1.56-.3,.67,0,1.27,.14,1.8,.43Z"/>
    <path d="M260.55,82.08c.55,.29,.98,.71,1.29,1.28s.46,1.25,.46,2.05v5.2h-1.81v-4.93c0-.79-.2-1.39-.59-1.82-.39-.42-.93-.63-1.62-.63s-1.22,.21-1.62,.63c-.4,.42-.6,1.03-.6,1.82v4.93h-1.82v-8.82h1.82v1.01c.3-.36,.68-.65,1.14-.85,.46-.2,.96-.3,1.48-.3,.69,0,1.31,.14,1.86,.43Z"/>
    <path d="M267.08,90.19c-.67-.38-1.2-.91-1.58-1.6-.38-.69-.58-1.48-.58-2.39s.2-1.69,.59-2.38,.93-1.23,1.62-1.6c.68-.37,1.45-.56,2.29-.56s1.61,.19,2.29,.56c.68,.37,1.22,.91,1.62,1.6s.59,1.49,.59,2.38-.2,1.69-.61,2.38-.96,1.23-1.66,1.61-1.47,.57-2.31,.57-1.58-.19-2.26-.57Zm3.58-1.35c.41-.22,.74-.56,1-1.01s.38-.99,.38-1.63-.12-1.18-.37-1.62c-.25-.44-.57-.78-.98-1s-.84-.34-1.31-.34-.9,.11-1.3,.34c-.4,.22-.72,.56-.95,1-.24,.44-.35,.98-.35,1.62,0,.95,.24,1.68,.73,2.2,.49,.52,1.1,.78,1.83,.78,.47,0,.91-.11,1.32-.34Z"/>
    <path d="M278.44,78.77v11.84h-1.82v-11.84h1.82Z"/>
    <path d="M283.31,90.19c-.67-.38-1.2-.91-1.58-1.6-.38-.69-.58-1.48-.58-2.39s.2-1.69,.59-2.38,.93-1.23,1.62-1.6c.68-.37,1.45-.56,2.29-.56s1.61,.19,2.29,.56c.68,.37,1.22,.91,1.62,1.6s.59,1.49,.59,2.38-.2,1.69-.61,2.38-.96,1.23-1.66,1.61-1.47,.57-2.31,.57-1.58-.19-2.26-.57Zm3.58-1.35c.41-.22,.74-.56,1-1.01s.38-.99,.38-1.63-.12-1.18-.37-1.62c-.25-.44-.57-.78-.98-1s-.84-.34-1.31-.34-.9,.11-1.3,.34c-.4,.22-.72,.56-.95,1-.24,.44-.35,.98-.35,1.62,0,.95,.24,1.68,.73,2.2,.49,.52,1.1,.78,1.83,.78,.47,0,.91-.11,1.32-.34Z"/>
    <path d="M298.21,82.06c.53,.27,.94,.61,1.24,1.02v-1.28h1.84v8.96c0,.81-.17,1.53-.51,2.17-.34,.63-.83,1.13-1.48,1.5-.65,.36-1.42,.54-2.31,.54-1.19,0-2.19-.28-2.98-.84-.79-.56-1.24-1.32-1.34-2.28h1.81c.14,.46,.43,.83,.89,1.11,.45,.28,1,.42,1.62,.42,.74,0,1.33-.22,1.78-.67,.45-.45,.68-1.1,.68-1.95v-1.47c-.31,.42-.73,.77-1.26,1.05-.53,.28-1.13,.42-1.8,.42-.77,0-1.47-.19-2.1-.58-.63-.39-1.14-.93-1.5-1.63-.37-.7-.55-1.49-.55-2.38s.18-1.67,.55-2.35c.37-.68,.87-1.21,1.5-1.59,.63-.38,1.34-.57,2.1-.57,.68,0,1.29,.14,1.82,.41Zm.86,2.55c-.25-.45-.58-.79-.98-1.02-.41-.23-.84-.35-1.31-.35s-.91,.11-1.31,.34-.73,.57-.98,1.01c-.25,.44-.38,.97-.38,1.58s.12,1.14,.38,1.6c.25,.46,.58,.81,.99,1.05,.41,.24,.85,.36,1.3,.36s.91-.12,1.31-.35,.73-.58,.98-1.03c.25-.45,.38-.98,.38-1.59s-.12-1.14-.38-1.58Z"/>
    <path d="M312.52,81.79l-5.41,12.96h-1.89l1.79-4.29-3.47-8.67h2.03l2.48,6.72,2.58-6.72h1.89Z"/>
    <path d="M321.98,83.28v4.88c0,.33,.08,.57,.23,.71,.16,.14,.42,.22,.79,.22h1.12v1.52h-1.44c-.82,0-1.45-.19-1.89-.58s-.66-1.01-.66-1.87v-4.88h-1.04v-1.49h1.04v-2.19h1.84v2.19h2.14v1.49h-2.14Z"/>
    <path d="M333.06,82.08c.53,.29,.94,.71,1.25,1.28,.3,.57,.46,1.25,.46,2.05v5.2h-1.81v-4.93c0-.79-.2-1.39-.59-1.82-.39-.42-.93-.63-1.62-.63s-1.22,.21-1.62,.63c-.4,.42-.6,1.03-.6,1.82v4.93h-1.82v-11.84h1.82v4.05c.31-.37,.7-.66,1.18-.86,.47-.2,.99-.3,1.56-.3,.67,0,1.27,.14,1.8,.43Z"/>
    <path d="M337.92,83.81c.37-.68,.87-1.21,1.5-1.59,.63-.38,1.34-.57,2.1-.57,.69,0,1.3,.14,1.82,.41,.52,.27,.93,.61,1.24,1.02v-1.28h1.84v8.82h-1.84v-1.31c-.31,.42-.73,.76-1.26,1.04-.53,.28-1.14,.42-1.82,.42-.76,0-1.45-.19-2.08-.58-.63-.39-1.13-.93-1.5-1.63-.37-.7-.55-1.49-.55-2.38s.18-1.67,.55-2.35Zm6.29,.8c-.25-.45-.58-.79-.98-1.02-.41-.23-.84-.35-1.31-.35s-.91,.11-1.31,.34-.73,.57-.98,1.01c-.25,.44-.38,.97-.38,1.58s.12,1.14,.38,1.6c.25,.46,.58,.81,.99,1.05,.41,.24,.85,.36,1.3,.36s.91-.12,1.31-.35,.73-.58,.98-1.03c.25-.45,.38-.98,.38-1.59s-.12-1.14-.38-1.58Z"/>
    <path d="M351.85,83.28v4.88c0,.33,.08,.57,.23,.71,.16,.14,.42,.22,.79,.22h1.12v1.52h-1.44c-.82,0-1.45-.19-1.89-.58s-.66-1.01-.66-1.87v-4.88h-1.04v-1.49h1.04v-2.19h1.84v2.19h2.14v1.49h-2.14Z"/>
    <path d="M363.27,90.33c-.6-.26-1.07-.63-1.41-1.11-.34-.48-.51-1.04-.51-1.68h1.95c.04,.48,.23,.88,.57,1.18s.81,.46,1.42,.46,1.12-.15,1.47-.46c.35-.3,.53-.7,.53-1.18,0-.37-.11-.68-.33-.91s-.49-.42-.82-.54-.78-.27-1.35-.42c-.73-.19-1.31-.39-1.77-.58-.45-.2-.84-.5-1.16-.92-.32-.42-.48-.97-.48-1.66,0-.64,.16-1.2,.48-1.68,.32-.48,.77-.85,1.34-1.1s1.24-.38,2-.38c1.08,0,1.96,.27,2.65,.81,.69,.54,1.07,1.28,1.14,2.22h-2.02c-.03-.41-.22-.75-.58-1.04-.35-.29-.82-.43-1.39-.43-.52,0-.95,.13-1.28,.4-.33,.27-.5,.65-.5,1.15,0,.34,.1,.62,.31,.84,.21,.22,.47,.39,.79,.52s.76,.27,1.31,.42c.74,.2,1.34,.41,1.8,.61,.46,.2,.86,.51,1.18,.94,.33,.42,.49,.98,.49,1.69,0,.57-.15,1.1-.46,1.6-.3,.5-.75,.9-1.33,1.21-.58,.3-1.27,.46-2.06,.46-.75,0-1.42-.13-2.02-.39Z"/>
    <path d="M375.27,82.07c.53-.28,1.14-.42,1.81-.42,.77,0,1.47,.19,2.1,.57,.63,.38,1.13,.91,1.5,1.59,.36,.68,.54,1.47,.54,2.35s-.18,1.68-.54,2.38c-.36,.7-.86,1.24-1.5,1.63-.63,.39-1.34,.58-2.1,.58-.67,0-1.27-.14-1.79-.41-.52-.27-.95-.61-1.28-1.02v5.47h-1.82v-13.01h1.82v1.3c.31-.41,.73-.75,1.26-1.02Zm3.72,2.52c-.25-.44-.58-.78-.99-1.01-.41-.23-.85-.34-1.32-.34s-.89,.12-1.3,.35c-.41,.24-.74,.58-.99,1.02-.25,.45-.38,.98-.38,1.58s.12,1.14,.38,1.59c.25,.45,.58,.8,.99,1.03,.41,.23,.85,.35,1.3,.35s.91-.12,1.32-.36c.41-.24,.74-.59,.99-1.05,.25-.46,.38-.99,.38-1.6s-.12-1.13-.38-1.58Z"/>
    <path d="M391.95,86.88h-6.74c.05,.7,.31,1.27,.78,1.7,.47,.43,1.05,.64,1.73,.64,.98,0,1.67-.41,2.08-1.23h1.97c-.27,.81-.75,1.47-1.45,1.99s-1.57,.78-2.6,.78c-.84,0-1.6-.19-2.26-.57-.67-.38-1.19-.91-1.57-1.6-.38-.69-.57-1.48-.57-2.39s.18-1.7,.55-2.39c.37-.69,.89-1.22,1.55-1.59,.67-.37,1.43-.56,2.3-.56s1.57,.18,2.22,.54,1.16,.87,1.52,1.53c.36,.66,.54,1.41,.54,2.26,0,.33-.02,.63-.06,.9Zm-1.84-1.47c-.01-.67-.25-1.21-.72-1.62-.47-.41-1.05-.61-1.74-.61-.63,0-1.17,.2-1.62,.6-.45,.4-.71,.94-.8,1.62h4.88Z"/>
    <path d="M394.64,83.81c.37-.68,.87-1.21,1.5-1.59,.63-.38,1.34-.57,2.1-.57,.69,0,1.3,.14,1.82,.41,.52,.27,.93,.61,1.24,1.02v-1.28h1.84v8.82h-1.84v-1.31c-.31,.42-.73,.76-1.26,1.04-.53,.28-1.14,.42-1.82,.42-.76,0-1.45-.19-2.08-.58-.63-.39-1.13-.93-1.5-1.63-.37-.7-.55-1.49-.55-2.38s.18-1.67,.55-2.35Zm6.29,.8c-.25-.45-.58-.79-.98-1.02-.41-.23-.84-.35-1.31-.35s-.91,.11-1.31,.34-.73,.57-.98,1.01c-.25,.44-.38,.97-.38,1.58s.12,1.14,.38,1.6c.25,.46,.58,.81,.99,1.05,.41,.24,.85,.36,1.3,.36s.91-.12,1.31-.35,.73-.58,.98-1.03c.25-.45,.38-.98,.38-1.59s-.12-1.14-.38-1.58Z"/>
    <path d="M409.93,86.21l4.06,4.4h-2.46l-3.26-3.79v3.79h-1.82v-11.84h1.82v6.88l3.2-3.86h2.53l-4.06,4.42Z"/>
    <path d="M417.54,90.38c-.55-.25-.98-.59-1.3-1.02-.32-.43-.49-.92-.51-1.45h1.89c.03,.37,.21,.69,.54,.94,.33,.25,.73,.38,1.22,.38s.91-.1,1.19-.3c.28-.2,.42-.45,.42-.76,0-.33-.16-.58-.47-.74-.31-.16-.81-.34-1.5-.53-.66-.18-1.2-.36-1.62-.53-.42-.17-.78-.43-1.08-.78-.3-.35-.46-.82-.46-1.39,0-.47,.14-.9,.42-1.29,.28-.39,.67-.7,1.19-.92s1.11-.34,1.78-.34c1,0,1.81,.25,2.42,.76,.61,.51,.94,1.2,.98,2.07h-1.82c-.03-.39-.19-.71-.48-.94-.29-.23-.68-.35-1.17-.35s-.85,.09-1.1,.27c-.26,.18-.38,.42-.38,.72,0,.23,.08,.43,.26,.59s.38,.29,.62,.38,.61,.21,1.09,.34c.64,.17,1.17,.34,1.58,.52,.41,.18,.77,.43,1.06,.78,.3,.34,.45,.79,.46,1.36,0,.5-.14,.95-.42,1.34-.28,.39-.67,.7-1.18,.93-.51,.22-1.1,.34-1.78,.34s-1.32-.12-1.86-.38Z"/>
  </g>
</svg>